<?xml version="1.0" encoding="utf-8"?>
<!-- Generator: Adobe Illustrator 25.1.0, SVG Export Plug-In . SVG Version: 6.00 Build 0)  -->
<svg version="1.1" id="Layer_1" xmlns="http://www.w3.org/2000/svg" xmlns:xlink="http://www.w3.org/1999/xlink" x="0px" y="0px"
	 viewBox="0 0 480 100" style="enable-background:new 0 0 480 100;" xml:space="preserve">
<style type="text/css">
	.st0{fill:#057F7C;}
	.st1{fill:#000405;}
	.st2{fill:#DBDDDD;}
</style>
<path class="st0" d="M5.029,5.497h5.273v19.407L30.973,5.497h6.944L13.079,28.7l26.771,28.511h-6.883L10.302,33.124v24.087H5.029
	V5.497z"/>
<path class="st0" d="M69.322,44.521l4.148,2.18c-1.361,2.671-2.932,4.829-4.715,6.468c-1.783,1.641-3.789,2.889-6.017,3.744
	c-2.229,0.855-4.751,1.283-7.566,1.283c-6.24,0-11.119-2.044-14.638-6.135c-3.519-4.09-5.278-8.712-5.278-13.869
	c0-4.852,1.489-9.176,4.469-12.973c3.776-4.828,8.832-7.242,15.166-7.242c6.521,0,11.729,2.473,15.623,7.418
	c2.768,3.493,4.175,7.852,4.223,13.078H40.318c0.093,4.443,1.513,8.085,4.259,10.925c2.746,2.842,6.137,4.262,10.173,4.262
	c1.947,0,3.842-0.338,5.685-1.016c1.842-0.677,3.408-1.576,4.699-2.696C66.424,48.828,67.82,47.019,69.322,44.521z M69.322,34.22
	c-0.657-2.625-1.613-4.723-2.869-6.293c-1.256-1.57-2.916-2.835-4.98-3.797c-2.065-0.961-4.236-1.441-6.512-1.441
	c-3.755,0-6.982,1.208-9.68,3.621c-1.971,1.758-3.461,4.395-4.47,7.91H69.322z"/>
<path class="st0" d="M72.811,18.962h5.238l12.839,27.882l12.684-27.882h5.273l-17.508,38.25h-0.914L72.811,18.962z"/>
<path class="st0" d="M113.076,18.962h4.922v38.25h-4.922V18.962z"/>
<path class="st0" d="M125.708,18.962h4.922v6.855c1.969-2.625,4.148-4.588,6.539-5.889s4.992-1.951,7.805-1.951
	c2.859,0,5.396,0.727,7.611,2.18c2.215,1.454,3.85,3.41,4.904,5.871s1.582,6.293,1.582,11.496v19.687h-4.922V38.966
	c0-4.406-0.183-7.348-0.548-8.824c-0.57-2.531-1.664-4.435-3.281-5.713c-1.617-1.277-3.728-1.916-6.329-1.916
	c-2.977,0-5.644,0.984-8,2.953c-2.356,1.969-3.909,4.407-4.659,7.312c-0.469,1.898-0.703,5.367-0.703,10.406v14.027h-4.922V18.962z"
	/>
<path class="st0" d="M229.325,15.095l-4.078,3.129c-2.25-2.93-4.952-5.15-8.104-6.662c-3.152-1.512-6.615-2.268-10.389-2.268
	c-4.125,0-7.945,0.99-11.461,2.971c-3.516,1.981-6.24,4.641-8.174,7.98s-2.9,7.096-2.9,11.268c0,6.305,2.162,11.566,6.486,15.785
	c4.324,4.218,9.779,6.328,16.365,6.328c7.242,0,13.301-2.835,18.176-8.507l4.078,3.093c-2.579,3.282-5.795,5.818-9.65,7.611
	c-3.855,1.793-8.162,2.689-12.92,2.689c-9.047,0-16.184-3.011-21.41-9.035c-4.383-5.085-6.574-11.226-6.574-18.421
	c0-7.57,2.654-13.939,7.963-19.107s11.958-7.752,19.951-7.752c4.828,0,9.188,0.955,13.078,2.865
	C223.653,8.972,226.841,11.65,229.325,15.095z"/>
<path class="st0" d="M233.424,18.962h5.027v5.59c1.5-2.203,3.082-3.85,4.746-4.939c1.664-1.09,3.398-1.635,5.203-1.635
	c1.359,0,2.812,0.434,4.359,1.301l-2.566,4.148c-1.032-0.445-1.898-0.668-2.602-0.668c-1.641,0-3.223,0.674-4.746,2.021
	c-1.524,1.348-2.684,3.44-3.48,6.275c-0.61,2.18-0.914,6.586-0.914,13.219v12.937h-5.027V18.962z"/>
<path class="st0" d="M290.373,18.962v38.25h-4.852v-6.574c-2.062,2.509-4.377,4.395-6.943,5.66s-5.374,1.898-8.42,1.898
	c-5.414,0-10.037-1.963-13.869-5.889c-3.832-3.925-5.748-8.701-5.748-14.326c0-5.507,1.934-10.218,5.801-14.133
	c3.867-3.914,8.52-5.871,13.957-5.871c3.141,0,5.981,0.668,8.525,2.004c2.543,1.336,4.775,3.34,6.697,6.012v-7.031H290.373z
	 M270.703,22.724c-2.739,0-5.268,0.673-7.585,2.02c-2.318,1.346-4.162,3.237-5.531,5.671s-2.054,5.01-2.054,7.725
	c0,2.693,0.69,5.268,2.071,7.726s3.236,4.372,5.565,5.741c2.329,1.37,4.829,2.055,7.498,2.055c2.692,0,5.243-0.679,7.655-2.037
	c2.411-1.357,4.266-3.195,5.565-5.512c1.299-2.317,1.949-4.928,1.949-7.831c0-4.424-1.458-8.123-4.372-11.097
	C278.551,24.211,274.964,22.724,270.703,22.724z"/>
<path class="st0" d="M293.759,18.962h5.062l11.725,27.773l12.204-27.773h0.893l12.286,27.773l11.95-27.773h5.118l-16.616,38.25
	h-0.913l-12.23-27.386l-12.224,27.386h-0.916L293.759,18.962z"/>
<path class="st0" d="M374.073,4.197v4.816c-1.806-0.773-3.353-1.16-4.641-1.16c-0.962,0-1.758,0.193-2.391,0.58
	s-1.032,0.832-1.195,1.336c-0.164,0.504-0.246,1.846-0.246,4.025l-0.005,5.168h7.985v4.254h-7.988l-0.027,33.996h-4.922V23.216
	h-5.027v-4.254h5.027v-5.977c0-2.742,0.251-4.699,0.756-5.871c0.504-1.172,1.358-2.115,2.566-2.83
	c1.207-0.715,2.666-1.072,4.377-1.072C369.936,3.212,371.845,3.541,374.073,4.197z"/>
<path class="st0" d="M392.433,17.978c5.894,0,10.776,2.133,14.651,6.398c3.521,3.891,5.282,8.496,5.282,13.816
	c0,5.344-1.861,10.014-5.582,14.009c-3.722,3.996-8.506,5.994-14.352,5.994c-5.87,0-10.665-1.998-14.387-5.994
	c-3.722-3.995-5.582-8.666-5.582-14.009c0-5.296,1.761-9.891,5.283-13.781C381.622,20.122,386.517,17.978,392.433,17.978z
	 M392.416,22.794c-4.092,0-7.609,1.512-10.549,4.535c-2.94,3.023-4.41,6.68-4.41,10.969c0,2.766,0.67,5.344,2.012,7.734
	c1.34,2.39,3.151,4.236,5.433,5.537s4.786,1.951,7.515,1.951s5.233-0.65,7.515-1.951s4.093-3.146,5.434-5.537
	c1.34-2.391,2.011-4.969,2.011-7.734c0-4.289-1.476-7.945-4.428-10.969S396.485,22.794,392.416,22.794z"/>
<path class="st0" d="M417.09,18.962h5.027v5.59c1.5-2.203,3.082-3.85,4.746-4.939s3.398-1.635,5.203-1.635
	c1.359,0,2.812,0.434,4.359,1.301l-2.566,4.148c-1.031-0.445-1.898-0.668-2.602-0.668c-1.641,0-3.223,0.674-4.746,2.021
	c-1.523,1.348-2.684,3.44-3.48,6.275c-0.61,2.18-0.914,6.586-0.914,13.219v12.937h-5.027V18.962z"/>
<path class="st0" d="M474.689,4.197v53.015h-4.852v-6.574c-2.062,2.509-4.377,4.395-6.943,5.66s-5.373,1.898-8.42,1.898
	c-5.414,0-10.037-1.963-13.869-5.889c-3.832-3.925-5.748-8.701-5.748-14.326c0-5.507,1.934-10.218,5.801-14.133
	c3.867-3.914,8.52-5.871,13.957-5.871c3.141,0,5.982,0.668,8.525,2.004s4.775,3.34,6.697,6.012V4.197H474.689z M455.019,22.724
	c-2.739,0-5.268,0.673-7.585,2.02c-2.318,1.346-4.161,3.237-5.531,5.671c-1.369,2.435-2.054,5.01-2.054,7.725
	c0,2.693,0.69,5.268,2.071,7.726s3.236,4.372,5.565,5.741c2.329,1.37,4.829,2.055,7.498,2.055c2.692,0,5.244-0.679,7.655-2.037
	c2.411-1.357,4.266-3.195,5.565-5.512c1.3-2.317,1.949-4.928,1.949-7.831c0-4.424-1.457-8.123-4.372-11.097
	C462.867,24.211,459.28,22.724,455.019,22.724z"/>
<g>
	<path class="st1" d="M4.518,89.268l1.343-0.806c0.945,1.74,2.037,2.61,3.276,2.61c0.53,0,1.027-0.123,1.493-0.371
		c0.465-0.246,0.82-0.578,1.063-0.993c0.243-0.415,0.365-0.855,0.365-1.321c0-0.53-0.179-1.049-0.537-1.558
		c-0.494-0.702-1.396-1.547-2.707-2.535c-1.318-0.995-2.138-1.715-2.46-2.159c-0.559-0.745-0.838-1.551-0.838-2.417
		c0-0.688,0.165-1.314,0.494-1.88c0.329-0.565,0.793-1.012,1.391-1.338C8,76.176,8.65,76.012,9.352,76.012
		c0.745,0,1.441,0.185,2.089,0.553c0.648,0.369,1.333,1.048,2.057,2.036l-1.289,0.978c-0.595-0.788-1.101-1.307-1.52-1.558
		s-0.875-0.376-1.37-0.376c-0.638,0-1.159,0.193-1.563,0.58c-0.405,0.387-0.607,0.863-0.607,1.429c0,0.344,0.071,0.677,0.215,0.999
		c0.143,0.322,0.404,0.673,0.784,1.053c0.208,0.2,0.888,0.727,2.041,1.579c1.368,1.01,2.306,1.908,2.814,2.696
		c0.508,0.788,0.763,1.579,0.763,2.374c0,1.146-0.435,2.142-1.305,2.986s-1.928,1.268-3.174,1.268c-0.96,0-1.83-0.256-2.61-0.769
		C5.896,91.329,5.177,90.471,4.518,89.268z"/>
	<path class="st1" d="M21.953,80.223c1.801,0,3.293,0.651,4.477,1.955c1.076,1.188,1.614,2.596,1.614,4.222
		c0,1.633-0.569,3.06-1.706,4.28c-1.137,1.222-2.599,1.832-4.385,1.832c-1.793,0-3.259-0.61-4.396-1.832
		c-1.137-1.221-1.706-2.647-1.706-4.28c0-1.618,0.538-3.022,1.614-4.211C18.649,80.879,20.145,80.223,21.953,80.223z M21.948,81.695
		c-1.25,0-2.325,0.462-3.223,1.386c-0.898,0.924-1.348,2.041-1.348,3.352c0,0.845,0.205,1.633,0.614,2.363s0.963,1.295,1.66,1.691
		c0.697,0.398,1.463,0.597,2.296,0.597s1.599-0.198,2.296-0.597c0.697-0.396,1.25-0.961,1.66-1.691
		c0.409-0.73,0.614-1.519,0.614-2.363c0-1.311-0.451-2.428-1.353-3.352S23.191,81.695,21.948,81.695z"/>
	<path class="st1" d="M30.16,76.012h1.504v16.199H30.16V76.012z"/>
	<path class="st1" d="M34.157,80.524h1.504v5.457c0,1.332,0.072,2.249,0.215,2.75c0.215,0.716,0.625,1.282,1.231,1.697
		s1.329,0.623,2.168,0.623c0.839,0,1.551-0.202,2.136-0.607c0.584-0.404,0.988-0.936,1.21-1.595
		c0.151-0.451,0.226-1.407,0.226-2.868v-5.457h1.536v5.736c0,1.611-0.188,2.825-0.564,3.642s-0.942,1.456-1.697,1.917
		c-0.756,0.463-1.703,0.693-2.841,0.693s-2.089-0.23-2.852-0.693c-0.763-0.461-1.332-1.105-1.708-1.934
		c-0.376-0.826-0.564-2.071-0.564-3.732V80.524z"/>
	<path class="st1" d="M48.595,76.184h1.504v4.34h2.385v1.3h-2.385v10.388h-1.504V81.824h-2.052v-1.3h2.052V76.184z"/>
	<path class="st1" d="M55.26,75.712c0.342,0,0.635,0.122,0.877,0.365s0.364,0.537,0.364,0.881c0,0.337-0.122,0.627-0.364,0.87
		s-0.535,0.365-0.877,0.365c-0.335,0-0.624-0.122-0.866-0.365c-0.243-0.243-0.364-0.533-0.364-0.87c0-0.344,0.121-0.638,0.364-0.881
		C54.636,75.834,54.926,75.712,55.26,75.712z M54.514,80.524h1.504v11.688h-1.504V80.524z"/>
	<path class="st1" d="M64.126,80.223c1.801,0,3.293,0.651,4.477,1.955c1.076,1.188,1.614,2.596,1.614,4.222
		c0,1.633-0.569,3.06-1.706,4.28c-1.137,1.222-2.599,1.832-4.385,1.832c-1.793,0-3.259-0.61-4.396-1.832
		c-1.137-1.221-1.706-2.647-1.706-4.28c0-1.618,0.538-3.022,1.614-4.211C60.822,80.879,62.318,80.223,64.126,80.223z M64.12,81.695
		c-1.25,0-2.325,0.462-3.223,1.386c-0.898,0.924-1.348,2.041-1.348,3.352c0,0.845,0.205,1.633,0.614,2.363s0.963,1.295,1.66,1.691
		c0.697,0.398,1.463,0.597,2.296,0.597s1.599-0.198,2.296-0.597c0.697-0.396,1.25-0.961,1.66-1.691
		c0.409-0.73,0.614-1.519,0.614-2.363c0-1.311-0.451-2.428-1.353-3.352S65.364,81.695,64.12,81.695z"/>
	<path class="st1" d="M72.559,80.524h1.504v2.095c0.602-0.802,1.268-1.401,1.998-1.8c0.73-0.396,1.525-0.596,2.385-0.596
		c0.874,0,1.649,0.222,2.326,0.666s1.176,1.042,1.499,1.794s0.483,1.923,0.483,3.513v6.016h-1.504v-5.575
		c0-1.347-0.056-2.245-0.167-2.696c-0.174-0.773-0.508-1.355-1.002-1.746c-0.494-0.39-1.139-0.585-1.934-0.585
		c-0.91,0-1.725,0.301-2.444,0.902s-1.194,1.347-1.423,2.234c-0.144,0.58-0.215,1.64-0.215,3.18v4.286h-1.504V80.524z"/>
	<path class="st1" d="M97.89,76.41l7.369,15.802h-1.706l-2.485-5.199H94.26l-2.461,5.199h-1.762l7.466-15.802H97.89z M97.691,79.767
		l-2.708,5.72h5.402L97.691,79.767z"/>
	<path class="st1" d="M106.452,80.524h1.536v1.708c0.458-0.673,0.941-1.177,1.45-1.509c0.509-0.334,1.038-0.5,1.59-0.5
		c0.415,0,0.859,0.133,1.332,0.397l-0.784,1.268c-0.315-0.136-0.58-0.204-0.795-0.204c-0.501,0-0.984,0.206-1.45,0.617
		c-0.466,0.412-0.82,1.052-1.063,1.918c-0.187,0.666-0.279,2.013-0.279,4.039v3.953h-1.536V80.524z"/>
	<path class="st1" d="M124.542,82.952l-1.192,0.741c-1.03-1.368-2.436-2.052-4.217-2.052c-1.424,0-2.605,0.458-3.546,1.373
		c-0.94,0.916-1.411,2.028-1.411,3.338c0,0.851,0.217,1.652,0.649,2.403s1.026,1.334,1.781,1.749c0.754,0.415,1.6,0.622,2.537,0.622
		c1.717,0,3.119-0.684,4.206-2.052l1.192,0.784c-0.559,0.841-1.309,1.494-2.25,1.958c-0.942,0.463-2.015,0.695-3.218,0.695
		c-1.848,0-3.38-0.587-4.598-1.762s-1.826-2.604-1.826-4.286c0-1.132,0.284-2.183,0.854-3.153c0.568-0.97,1.352-1.728,2.347-2.271
		s2.109-0.816,3.341-0.816c0.773,0,1.52,0.118,2.24,0.354c0.719,0.236,1.33,0.544,1.831,0.924S124.191,82.365,124.542,82.952z"/>
	<path class="st1" d="M126.992,76.012h1.504v6.606c0.608-0.802,1.278-1.401,2.009-1.8c0.73-0.396,1.521-0.596,2.374-0.596
		c0.874,0,1.648,0.222,2.326,0.666c0.676,0.444,1.176,1.04,1.498,1.789c0.322,0.748,0.483,1.921,0.483,3.518v6.016h-1.504v-5.575
		c0-1.347-0.054-2.245-0.161-2.696c-0.187-0.773-0.524-1.355-1.016-1.746c-0.49-0.39-1.133-0.585-1.928-0.585
		c-0.909,0-1.725,0.301-2.443,0.902c-0.721,0.602-1.194,1.347-1.424,2.234c-0.144,0.573-0.215,1.633-0.215,3.18v4.286h-1.504V76.012
		z"/>
	<path class="st1" d="M140.49,75.712c0.342,0,0.634,0.122,0.877,0.365c0.242,0.243,0.363,0.537,0.363,0.881
		c0,0.337-0.121,0.627-0.363,0.87c-0.243,0.243-0.535,0.365-0.877,0.365c-0.336,0-0.625-0.122-0.867-0.365s-0.363-0.533-0.363-0.87
		c0-0.344,0.121-0.638,0.363-0.881S140.154,75.712,140.49,75.712z M139.743,80.524h1.504v11.688h-1.504V80.524z"/>
	<path class="st1" d="M145.244,76.184h1.504v4.34h2.385v1.3h-2.385v10.388h-1.504V81.824h-2.052v-1.3h2.052V76.184z"/>
	<path class="st1" d="M160.788,88.334L162.055,89c-0.416,0.816-0.896,1.476-1.44,1.977s-1.158,0.883-1.839,1.144
		c-0.682,0.262-1.452,0.393-2.312,0.393c-1.907,0-3.397-0.625-4.473-1.875c-1.075-1.249-1.613-2.662-1.613-4.237
		c0-1.482,0.455-2.804,1.365-3.964c1.154-1.476,2.699-2.213,4.634-2.213c1.993,0,3.584,0.756,4.774,2.267
		c0.846,1.067,1.275,2.399,1.29,3.996h-10.517c0.028,1.357,0.463,2.471,1.302,3.339s1.875,1.302,3.107,1.302
		c0.596,0,1.175-0.104,1.737-0.311s1.041-0.481,1.436-0.824C159.902,89.65,160.329,89.097,160.788,88.334z M160.788,85.186
		c-0.201-0.802-0.493-1.443-0.877-1.923s-0.891-0.866-1.521-1.16s-1.294-0.44-1.99-0.44c-1.146,0-2.133,0.369-2.957,1.106
		c-0.603,0.537-1.058,1.343-1.366,2.417H160.788z"/>
	<path class="st1" d="M176.149,82.952l-1.192,0.741c-1.03-1.368-2.436-2.052-4.217-2.052c-1.424,0-2.605,0.458-3.546,1.373
		c-0.94,0.916-1.411,2.028-1.411,3.338c0,0.851,0.217,1.652,0.649,2.403s1.026,1.334,1.781,1.749c0.754,0.415,1.6,0.622,2.537,0.622
		c1.717,0,3.119-0.684,4.206-2.052l1.192,0.784c-0.559,0.841-1.309,1.494-2.25,1.958c-0.942,0.463-2.015,0.695-3.218,0.695
		c-1.848,0-3.38-0.587-4.598-1.762s-1.826-2.604-1.826-4.286c0-1.132,0.284-2.183,0.854-3.153c0.568-0.97,1.352-1.728,2.347-2.271
		s2.109-0.816,3.341-0.816c0.773,0,1.52,0.118,2.24,0.354c0.719,0.236,1.33,0.544,1.831,0.924S175.799,82.365,176.149,82.952z"/>
	<path class="st1" d="M179.91,76.184h1.504v4.34h2.385v1.3h-2.385v10.388h-1.504V81.824h-2.052v-1.3h2.052V76.184z"/>
</g>
<path class="st2" d="M193.079,74.012h1.536v20.475h-1.536V74.012z"/>
<g>
	<path class="st1" d="M203.895,76.41h1.579v9.539c0,1.132,0.021,1.837,0.064,2.116c0.079,0.623,0.262,1.145,0.548,1.562
		c0.286,0.42,0.727,0.771,1.321,1.053c0.595,0.283,1.192,0.425,1.794,0.425c0.522,0,1.024-0.111,1.504-0.333s0.881-0.53,1.203-0.924
		s0.559-0.87,0.709-1.429c0.107-0.401,0.161-1.225,0.161-2.471V76.41h1.579v9.539c0,1.411-0.138,2.552-0.414,3.421
		c-0.275,0.871-0.826,1.628-1.654,2.272c-0.826,0.645-1.827,0.967-3.002,0.967c-1.274,0-2.367-0.305-3.276-0.913
		s-1.519-1.414-1.826-2.417c-0.193-0.616-0.29-1.726-0.29-3.33V76.41z"/>
	<path class="st1" d="M216.974,76.41h1.848l3.783,6.148l3.806-6.148h1.821l-4.713,7.635l5.025,8.167h-1.847l-4.104-6.668
		l-4.116,6.668h-1.848l5.048-8.156L216.974,76.41z"/>
	<path class="st1" d="M236.412,92.212V76.41h3.276c2.363,0,4.078,0.189,5.146,0.569c1.532,0.537,2.73,1.468,3.593,2.793
		c0.863,1.325,1.295,2.904,1.295,4.737c0,1.583-0.342,2.976-1.025,4.179c-0.685,1.203-1.572,2.091-2.664,2.664
		c-1.093,0.573-2.623,0.859-4.593,0.859H236.412z M237.927,90.719h1.826c2.185,0,3.699-0.136,4.544-0.408
		c1.188-0.386,2.123-1.082,2.804-2.087c0.681-1.006,1.021-2.234,1.021-3.688c0-1.523-0.369-2.826-1.106-3.906
		c-0.737-1.081-1.766-1.821-3.083-2.222c-0.988-0.301-2.617-0.451-4.888-0.451h-1.117V90.719z"/>
	<path class="st1" d="M261.937,88.334L263.204,89c-0.416,0.816-0.896,1.476-1.44,1.977s-1.158,0.883-1.839,1.144
		c-0.682,0.262-1.452,0.393-2.312,0.393c-1.907,0-3.397-0.625-4.473-1.875c-1.075-1.249-1.613-2.662-1.613-4.237
		c0-1.482,0.455-2.804,1.365-3.964c1.154-1.476,2.699-2.213,4.634-2.213c1.993,0,3.584,0.756,4.774,2.267
		c0.846,1.067,1.275,2.399,1.29,3.996h-10.517c0.028,1.357,0.463,2.471,1.302,3.339s1.875,1.302,3.107,1.302
		c0.596,0,1.175-0.104,1.737-0.311s1.041-0.481,1.436-0.824C261.051,89.65,261.478,89.097,261.937,88.334z M261.937,85.186
		c-0.201-0.802-0.493-1.443-0.877-1.923s-0.891-0.866-1.521-1.16s-1.294-0.44-1.99-0.44c-1.146,0-2.133,0.369-2.957,1.106
		c-0.603,0.537-1.058,1.343-1.366,2.417H261.937z"/>
	<path class="st1" d="M272.051,81.802l-0.967,0.999c-0.805-0.78-1.591-1.171-2.358-1.171c-0.488,0-0.907,0.161-1.255,0.483
		c-0.349,0.322-0.522,0.698-0.522,1.128c0,0.38,0.144,0.741,0.431,1.085c0.287,0.351,0.89,0.763,1.809,1.235
		c1.119,0.58,1.88,1.139,2.282,1.676c0.395,0.544,0.592,1.156,0.592,1.837c0,0.96-0.337,1.772-1.012,2.438
		c-0.674,0.666-1.517,0.999-2.527,0.999c-0.675,0-1.318-0.146-1.932-0.44s-1.121-0.698-1.522-1.214l0.945-1.074
		c0.769,0.866,1.583,1.3,2.444,1.3c0.603,0,1.116-0.193,1.539-0.58c0.424-0.387,0.636-0.842,0.636-1.364
		c0-0.43-0.14-0.812-0.42-1.149c-0.28-0.329-0.911-0.745-1.895-1.246c-1.055-0.544-1.772-1.081-2.153-1.611
		c-0.38-0.53-0.57-1.135-0.57-1.815c0-0.888,0.303-1.626,0.909-2.213s1.372-0.881,2.298-0.881
		C269.877,80.223,270.96,80.75,272.051,81.802z"/>
	<path class="st1" d="M275.016,75.712c0.342,0,0.634,0.122,0.877,0.365c0.242,0.243,0.363,0.537,0.363,0.881
		c0,0.337-0.121,0.627-0.363,0.87c-0.243,0.243-0.535,0.365-0.877,0.365c-0.336,0-0.625-0.122-0.867-0.365s-0.363-0.533-0.363-0.87
		c0-0.344,0.121-0.638,0.363-0.881S274.68,75.712,275.016,75.712z M274.269,80.524h1.504v11.688h-1.504V80.524z"/>
	<path class="st1" d="M288.535,80.524h1.504v9.313c0,1.64-0.144,2.84-0.43,3.599c-0.394,1.074-1.078,1.901-2.052,2.481
		s-2.145,0.87-3.513,0.87c-1.003,0-1.903-0.142-2.701-0.426c-0.799-0.283-1.449-0.664-1.95-1.142s-0.963-1.177-1.386-2.096h1.633
		c0.444,0.773,1.019,1.347,1.721,1.719c0.703,0.372,1.574,0.559,2.613,0.559c1.025,0,1.892-0.191,2.598-0.572
		c0.706-0.383,1.21-0.862,1.511-1.44c0.302-0.578,0.452-1.512,0.452-2.8v-0.602c-0.566,0.716-1.258,1.266-2.075,1.649
		c-0.817,0.383-1.685,0.574-2.603,0.574c-1.075,0-2.086-0.267-3.032-0.801c-0.946-0.533-1.678-1.251-2.193-2.153
		c-0.517-0.902-0.774-1.895-0.774-2.976s0.269-2.09,0.807-3.023c0.537-0.936,1.281-1.675,2.231-2.219
		c0.949-0.544,1.951-0.816,3.005-0.816c0.875,0,1.69,0.181,2.446,0.543c0.757,0.361,1.486,0.957,2.188,1.788V80.524z
		 M284.099,81.674c-0.853,0-1.644,0.206-2.374,0.618c-0.73,0.411-1.304,0.98-1.719,1.707c-0.415,0.728-0.623,1.514-0.623,2.358
		c0,1.282,0.43,2.342,1.289,3.18s1.973,1.257,3.341,1.257c1.382,0,2.494-0.415,3.335-1.246c0.842-0.831,1.263-1.923,1.263-3.276
		c0-0.881-0.193-1.667-0.58-2.358c-0.387-0.69-0.935-1.236-1.644-1.638S284.915,81.674,284.099,81.674z"/>
	<path class="st1" d="M292.822,80.524h1.504v2.095c0.602-0.802,1.268-1.401,1.998-1.8c0.73-0.396,1.525-0.596,2.385-0.596
		c0.874,0,1.648,0.222,2.326,0.666c0.676,0.444,1.176,1.042,1.498,1.794s0.483,1.923,0.483,3.513v6.016h-1.504v-5.575
		c0-1.347-0.056-2.245-0.167-2.696c-0.175-0.773-0.509-1.355-1.003-1.746c-0.494-0.39-1.139-0.585-1.934-0.585
		c-0.91,0-1.725,0.301-2.444,0.902c-0.721,0.602-1.194,1.347-1.424,2.234c-0.144,0.58-0.215,1.64-0.215,3.18v4.286h-1.504V80.524z"
		/>
	<path class="st1" d="M315.418,88.334L316.686,89c-0.416,0.816-0.896,1.476-1.44,1.977s-1.158,0.883-1.839,1.144
		c-0.682,0.262-1.452,0.393-2.312,0.393c-1.907,0-3.397-0.625-4.473-1.875c-1.075-1.249-1.613-2.662-1.613-4.237
		c0-1.482,0.455-2.804,1.365-3.964c1.154-1.476,2.699-2.213,4.634-2.213c1.993,0,3.584,0.756,4.774,2.267
		c0.846,1.067,1.275,2.399,1.29,3.996h-10.517c0.028,1.357,0.463,2.471,1.302,3.339s1.875,1.302,3.107,1.302
		c0.596,0,1.175-0.104,1.737-0.311s1.041-0.481,1.436-0.824C314.532,89.65,314.959,89.097,315.418,88.334z M315.418,85.186
		c-0.201-0.802-0.493-1.443-0.877-1.923s-0.891-0.866-1.521-1.16s-1.294-0.44-1.99-0.44c-1.146,0-2.133,0.369-2.957,1.106
		c-0.603,0.537-1.058,1.343-1.366,2.417H315.418z"/>
	<path class="st1" d="M318.867,80.524h1.536v1.708c0.458-0.673,0.941-1.177,1.45-1.509c0.509-0.334,1.038-0.5,1.59-0.5
		c0.415,0,0.859,0.133,1.332,0.397l-0.784,1.268c-0.315-0.136-0.58-0.204-0.795-0.204c-0.501,0-0.984,0.206-1.45,0.617
		c-0.466,0.412-0.82,1.052-1.063,1.918c-0.187,0.666-0.279,2.013-0.279,4.039v3.953h-1.536V80.524z"/>
</g>
<path class="st2" d="M334.056,74.012h1.536v20.475h-1.536V74.012z"/>
<g>
	<path class="st1" d="M344.872,76.41h1.579v9.539c0,1.132,0.021,1.837,0.064,2.116c0.079,0.623,0.262,1.145,0.548,1.562
		c0.286,0.42,0.727,0.771,1.321,1.053c0.595,0.283,1.192,0.425,1.794,0.425c0.522,0,1.024-0.111,1.504-0.333s0.881-0.53,1.203-0.924
		s0.559-0.87,0.709-1.429c0.107-0.401,0.161-1.225,0.161-2.471V76.41h1.579v9.539c0,1.411-0.138,2.552-0.414,3.421
		c-0.275,0.871-0.826,1.628-1.654,2.272c-0.826,0.645-1.827,0.967-3.002,0.967c-1.274,0-2.367-0.305-3.276-0.913
		s-1.519-1.414-1.826-2.417c-0.193-0.616-0.29-1.726-0.29-3.33V76.41z"/>
	<path class="st1" d="M358.887,76.41h1.579v15.802h-1.579V76.41z"/>
	<path class="st1" d="M369.298,92.212V76.41h3.276c2.363,0,4.078,0.189,5.146,0.569c1.532,0.537,2.73,1.468,3.593,2.793
		c0.863,1.325,1.295,2.904,1.295,4.737c0,1.583-0.342,2.976-1.025,4.179c-0.685,1.203-1.572,2.091-2.664,2.664
		c-1.093,0.573-2.623,0.859-4.593,0.859H369.298z M370.812,90.719h1.826c2.185,0,3.699-0.136,4.544-0.408
		c1.188-0.386,2.123-1.082,2.804-2.087c0.681-1.006,1.021-2.234,1.021-3.688c0-1.523-0.369-2.826-1.106-3.906
		c-0.737-1.081-1.766-1.821-3.083-2.222c-0.988-0.301-2.617-0.451-4.888-0.451h-1.117V90.719z"/>
	<path class="st1" d="M394.821,88.334L396.089,89c-0.416,0.816-0.896,1.476-1.44,1.977s-1.158,0.883-1.839,1.144
		c-0.682,0.262-1.452,0.393-2.312,0.393c-1.907,0-3.397-0.625-4.473-1.875c-1.075-1.249-1.613-2.662-1.613-4.237
		c0-1.482,0.455-2.804,1.365-3.964c1.154-1.476,2.699-2.213,4.634-2.213c1.993,0,3.584,0.756,4.774,2.267
		c0.846,1.067,1.275,2.399,1.29,3.996h-10.517c0.028,1.357,0.463,2.471,1.302,3.339s1.875,1.302,3.107,1.302
		c0.596,0,1.175-0.104,1.737-0.311s1.041-0.481,1.436-0.824C393.935,89.65,394.362,89.097,394.821,88.334z M394.821,85.186
		c-0.201-0.802-0.493-1.443-0.877-1.923s-0.891-0.866-1.521-1.16s-1.294-0.44-1.99-0.44c-1.146,0-2.133,0.369-2.957,1.106
		c-0.603,0.537-1.058,1.343-1.366,2.417H394.821z"/>
	<path class="st1" d="M397.403,80.524h1.601l3.923,8.52l3.876-8.52h1.611l-5.35,11.688h-0.279L397.403,80.524z"/>
	<path class="st1" d="M419.771,88.334L421.039,89c-0.416,0.816-0.896,1.476-1.44,1.977s-1.158,0.883-1.839,1.144
		c-0.682,0.262-1.452,0.393-2.312,0.393c-1.907,0-3.397-0.625-4.473-1.875c-1.075-1.249-1.613-2.662-1.613-4.237
		c0-1.482,0.455-2.804,1.365-3.964c1.154-1.476,2.699-2.213,4.634-2.213c1.993,0,3.584,0.756,4.774,2.267
		c0.846,1.067,1.275,2.399,1.29,3.996h-10.517c0.028,1.357,0.463,2.471,1.302,3.339s1.875,1.302,3.107,1.302
		c0.596,0,1.175-0.104,1.737-0.311s1.041-0.481,1.436-0.824C418.885,89.65,419.312,89.097,419.771,88.334z M419.771,85.186
		c-0.201-0.802-0.493-1.443-0.877-1.923s-0.891-0.866-1.521-1.16s-1.294-0.44-1.99-0.44c-1.146,0-2.133,0.369-2.957,1.106
		c-0.603,0.537-1.058,1.343-1.366,2.417H419.771z"/>
	<path class="st1" d="M423.564,76.012h1.504v16.199h-1.504V76.012z"/>
	<path class="st1" d="M433.286,80.223c1.801,0,3.293,0.651,4.477,1.955c1.076,1.188,1.614,2.596,1.614,4.222
		c0,1.633-0.568,3.06-1.706,4.28c-1.137,1.222-2.599,1.832-4.385,1.832c-1.794,0-3.259-0.61-4.396-1.832
		c-1.138-1.221-1.706-2.647-1.706-4.28c0-1.618,0.538-3.022,1.614-4.211C429.982,80.879,431.478,80.223,433.286,80.223z
		 M433.281,81.695c-1.251,0-2.325,0.462-3.224,1.386s-1.348,2.041-1.348,3.352c0,0.845,0.205,1.633,0.614,2.363
		c0.41,0.73,0.963,1.295,1.66,1.691c0.697,0.398,1.463,0.597,2.297,0.597c0.833,0,1.599-0.198,2.296-0.597
		c0.697-0.396,1.25-0.961,1.66-1.691c0.409-0.73,0.614-1.519,0.614-2.363c0-1.311-0.451-2.428-1.353-3.352
		C435.596,82.157,434.524,81.695,433.281,81.695z"/>
	<path class="st1" d="M441.741,80.524h1.504v2.148c0.594-0.816,1.277-1.429,2.05-1.837s1.635-0.612,2.586-0.612
		c1.66,0,3.08,0.598,4.261,1.794s1.771,2.636,1.771,4.318c0,1.719-0.585,3.178-1.755,4.378c-1.17,1.199-2.581,1.799-4.233,1.799
		c-0.93,0-1.785-0.193-2.564-0.58c-0.78-0.387-1.484-0.963-2.114-1.729v6.284h-1.504V80.524z M447.757,81.674
		c-1.301,0-2.396,0.454-3.285,1.362c-0.89,0.909-1.334,2.039-1.334,3.391c0,0.888,0.198,1.686,0.595,2.394s0.965,1.27,1.704,1.685
		s1.52,0.622,2.342,0.622c0.808,0,1.566-0.209,2.277-0.628c0.711-0.418,1.277-1.003,1.699-1.754
		c0.421-0.751,0.632-1.538,0.632-2.361c0-0.829-0.209-1.616-0.627-2.36c-0.418-0.743-0.98-1.321-1.688-1.732
		C449.364,81.88,448.593,81.674,447.757,81.674z"/>
	<path class="st1" d="M466.126,88.334L467.393,89c-0.416,0.816-0.896,1.476-1.44,1.977s-1.158,0.883-1.839,1.144
		c-0.682,0.262-1.452,0.393-2.312,0.393c-1.907,0-3.397-0.625-4.473-1.875c-1.075-1.249-1.613-2.662-1.613-4.237
		c0-1.482,0.455-2.804,1.365-3.964c1.154-1.476,2.699-2.213,4.634-2.213c1.993,0,3.584,0.756,4.774,2.267
		c0.846,1.067,1.275,2.399,1.29,3.996h-10.517c0.028,1.357,0.463,2.471,1.302,3.339s1.875,1.302,3.107,1.302
		c0.596,0,1.175-0.104,1.737-0.311s1.041-0.481,1.436-0.824C465.24,89.65,465.667,89.097,466.126,88.334z M466.126,85.186
		c-0.201-0.802-0.493-1.443-0.877-1.923s-0.891-0.866-1.521-1.16s-1.294-0.44-1.99-0.44c-1.146,0-2.133,0.369-2.957,1.106
		c-0.603,0.537-1.058,1.343-1.366,2.417H466.126z"/>
	<path class="st1" d="M469.574,80.524h1.536v1.708c0.458-0.673,0.941-1.177,1.45-1.509c0.509-0.334,1.038-0.5,1.59-0.5
		c0.415,0,0.859,0.133,1.332,0.397l-0.784,1.268c-0.315-0.136-0.58-0.204-0.795-0.204c-0.501,0-0.984,0.206-1.45,0.617
		c-0.466,0.412-0.82,1.052-1.063,1.918c-0.187,0.666-0.279,2.013-0.279,4.039v3.953h-1.536V80.524z"/>
</g>
</svg>
