<?xml version="1.0" encoding="utf-8"?>
<!-- Generator: Adobe Illustrator 25.2.0, SVG Export Plug-In . SVG Version: 6.00 Build 0)  -->
<svg version="1.1" id="Layer_1" xmlns="http://www.w3.org/2000/svg" xmlns:xlink="http://www.w3.org/1999/xlink" x="0px" y="0px"
	 viewBox="0 0 180 26.25" style="enable-background:new 0 0 180 26.25;" xml:space="preserve">
<style type="text/css">
	.st0{opacity:0.67;fill:#FFFFFF;}
	.st1{fill:#FFFFFF;}
</style>
<path id="k_1_" class="st0" d="M2.798,18.121v7.461H0V0.401h2.798v16.62l6.595-6.828h3.664l-7.194,7.261l7.794,8.127H9.759
	L2.798,18.121z"/>
<path id="e_1_" class="st0" d="M27.312,17.988c0,0.3,0,0.533-0.033,0.899H14.855c0.167,2.331,2.398,4.496,5.296,4.496
	c3.031,0,4.63-2.265,4.63-2.265l1.765,1.832c0,0-2.332,3.031-6.395,3.031c-4.663,0-8.027-3.531-8.027-8.094
	c0-4.497,3.064-8.094,7.694-8.094C24.115,9.794,27.312,13.025,27.312,17.988z M24.581,16.556c-0.1-1.732-1.665-4.163-4.763-4.163
	c-3.331,0-4.696,2.565-4.896,4.163H24.581z"/>
<path id="v_1_" class="st0" d="M29.844,10.194l4.73,10.425l4.73-10.425h2.865l-7.694,16.054L26.78,10.194H29.844z"/>
<path id="i_1_" class="st0" d="M45.344,3.366c1.033,0,1.899,0.866,1.899,1.899c0,1.033-0.866,1.898-1.899,1.898
	s-1.899-0.866-1.899-1.898C43.446,4.232,44.312,3.366,45.344,3.366z M43.945,10.194h2.798v15.388h-2.798V10.194z"/>
<path id="n_1_" class="st0" d="M62.963,15.69v9.893h-2.798v-9.426c0-2.631-1.632-3.764-3.697-3.764c-2.498,0-3.83,2.598-3.83,2.598
	v10.592H49.84V10.194h2.598v2.165c0,0,1.399-2.565,4.729-2.565C60.232,9.794,62.963,11.893,62.963,15.69z"/>
<path id="c_1_" class="st1" d="M79.553,23.017c0,0-2.232,2.964-6.295,2.964c-4.53,0-7.927-3.564-7.927-8.094
	c0-4.497,3.397-8.094,7.927-8.094c3.93,0,6.129,2.765,6.129,2.765l-1.899,1.699c0,0-1.499-1.865-4.23-1.865
	c-3.098,0-5.129,2.465-5.129,5.496c0,3.031,2.032,5.496,5.129,5.496c2.998,0,4.496-2.198,4.496-2.198L79.553,23.017z"/>
<path id="r_3_" class="st1" d="M90.411,10.194l-1.033,2.532c0,0-0.599-0.333-1.765-0.333c-2.431,0-3.531,2.598-3.531,2.598v10.592
	h-2.798V10.194h2.598v2.365c0,0,1.366-2.765,4.297-2.765C89.445,9.794,90.411,10.194,90.411,10.194z"/>
<path id="a_1_" class="st1" d="M104.001,15.457v10.125h-2.565V23.35c0,0-1.732,2.631-5.229,2.631c-2.764,0-5.729-1.932-5.729-5.263
	c0-2.998,2.631-5.129,6.095-5.129c2.831,0,4.63,1.266,4.63,1.266v-0.832c0-3.198-2.665-3.631-3.897-3.631
	c-2.331,0-4.596,1.299-4.596,1.299l-1.166-2.331c0,0,2.398-1.565,5.762-1.565C101.836,9.794,104.001,12.592,104.001,15.457z
	 M101.203,21.185V19.02c0,0-1.532-1.099-4.03-1.099c-2.398,0-3.897,1.199-3.897,2.798c0,1.998,1.799,2.798,3.531,2.798
	C99.538,23.517,101.203,21.185,101.203,21.185z"/>
<path id="w_1_" class="st1" d="M107.599,10.194l4.13,9.959l4.064-9.959h1.898l4.097,9.959l4.097-9.959h2.864l-7.028,16.054
	l-5.063-11.558l-5.063,11.558l-7.028-16.054H107.599z"/>
<path id="f_1_" class="st1" d="M129.516,10.194h2.087V4.898c0-3.264,2.531-4.896,4.73-4.896c0.899,0,1.899,0.166,3.231,0.899
	l-1.033,2.298c0,0-0.933-0.6-1.799-0.6c-1.499,0-2.331,0.966-2.331,2.465v5.129h3.997v2.532h-3.997v12.857h-2.798V12.725h-2.087
	V10.194z"/>
<path id="o_1_" class="st1" d="M153.852,17.888c0,4.53-3.397,8.094-7.927,8.094c-4.53,0-7.927-3.564-7.927-8.094
	s3.397-8.094,7.927-8.094C150.455,9.794,153.852,13.358,153.852,17.888z M151.055,17.888c0-3.031-2.032-5.496-5.129-5.496
	c-3.098,0-5.129,2.465-5.129,5.496c0,3.031,2.032,5.496,5.129,5.496C149.023,23.384,151.055,20.919,151.055,17.888z"/>
<path id="r_2_" class="st1" d="M165.178,10.194l-1.033,2.532c0,0-0.6-0.333-1.765-0.333c-2.431,0-3.53,2.598-3.53,2.598v10.592
	h-2.798V10.194h2.598v2.365c0,0,1.366-2.765,4.297-2.765C164.212,9.794,165.178,10.194,165.178,10.194z"/>
<path id="d_1_" class="st1" d="M177.202,12.092V0.401H180v25.181h-2.565V23.35c0,0-1.499,2.631-5.196,2.631
	c-4.163,0-7.461-3.564-7.461-8.094s3.298-8.094,7.461-8.094C175.637,9.794,177.202,12.092,177.202,12.092z M177.202,15.057
	c0,0-1.465-2.665-4.53-2.665c-3.064,0-5.096,2.465-5.096,5.496c0,3.031,1.965,5.496,5.096,5.496c3.064,0,4.53-2.665,4.53-2.665
	V15.057z"/>
</svg>
